<?xml version="1.0" encoding="utf-8"?>
<!-- Generator: Adobe Illustrator 23.1.0, SVG Export Plug-In . SVG Version: 6.00 Build 0)  -->
<svg version="1.1" id="Layer_1" xmlns="http://www.w3.org/2000/svg" xmlns:xlink="http://www.w3.org/1999/xlink" x="0px" y="0px"
	 viewBox="300 260 230 45" style="enable-background:new 0 0 841.89 595.28; background-color: rgba(92, 111, 125, 1);" xml:space="preserve">
<style type="text/css">
	.Arched_x0020_Green{fill:url(#SVGID_1_);stroke:#FFFFFF;stroke-width:0.25;stroke-miterlimit:1;}
</style>
<linearGradient id="SVGID_1_" gradientUnits="userSpaceOnUse" x1="0" y1="595.2803" x2="0.7071" y2="594.5732">
	<stop  offset="0" style="stop-color:#20AC4B"/>
	<stop  offset="0.9831" style="stop-color:#19361A"/>
</linearGradient>
<g>
	<path fill="rgb(236, 134, 67)" d="M527.18,297.64v-5.56h-26.34c-1.47-3.32-2.24-6.88-2.24-10.51c0-3.55,0.77-7.03,2.24-10.43h26.34v-5.56h-31.21
		c-2.47,4.4-4.02,9.97-4.02,15.99c0,6.1,1.54,11.67,4.02,16.07H527.18z M478.36,297.64v-32.06h-6.72v23.79l-21.86-23.79h-7.49v32.06
		H449v-24.1l22.09,24.1H478.36z M424.97,297.64v-32.06h-13.91v5.56h7.18v26.5H424.97z M406.52,291.62h-7.56v6.02h7.56V291.62z
		 M384.51,281.57c0,3.63-0.85,7.19-2.24,10.51h-23.18c-1.47-3.32-2.24-6.88-2.24-10.51c0-3.63,0.77-7.03,2.24-10.43h23.18
		C383.66,274.54,384.51,277.94,384.51,281.57 M391.23,281.57c0-6.1-1.7-11.59-4.17-15.99h-32.91c-2.39,4.4-3.94,9.89-3.94,15.99
		c0,6.03,1.55,11.67,4.02,16.07h32.83C389.61,293.31,391.23,287.6,391.23,281.57 M337,297.64v-32.06h-6.72v23.79l-21.86-23.79h-7.49
		v32.06h6.72v-24.1l22.1,24.1H337z"/>
</g>
</svg>
